# xmcd
#
# Track frame offsets:
#	183
#	10280
#	24050
#	37098
#	48028
#	56370
#	63380
#	74170
#	84700
#	96600
#
# Disc length: 1413 seconds
#
# Revision: 1
# Processed by: cddbd v1.4PL0 Copyright (c) Steve Scherf et al.
# Submitted via: audiograbber 1.80.04
#
DISCID=8405830a
DTITLE=Leadbelly - Defense Blues
DYEAR=1990
DGENRE=Folk
TTITLE0=On a monday
TTITLE1=Defense blues
TTITLE2=Keep your hands off her
TTITLE3=Jim Crow
TTITLE4=Down in the valley
TTITLE5=Skip to my Lou
TTITLE6=Pigmeat
TTITLE7=Blue tail fly
TTITLE8=Boll weevil blues
TTITLE9=Midnight Special
EXTD=Compilation
EXTT0=
EXTT1=
EXTT2=
EXTT3=
EXTT4=
EXTT5=
EXTT6=
EXTT7=
EXTT8=
EXTT9=
PLAYORDER=
